<?xml version="1.0" encoding="UTF-8"?>
<svg version="1.1" xmlns="http://www.w3.org/2000/svg" width="2053" height="2038">
<path d="M0 0 C18.19328651 -0.42128765 36.38530086 -0.7382725 54.58241749 -0.93261909 C63.03276312 -1.02527672 71.48007166 -1.15147208 79.9284668 -1.35791016 C87.2961254 -1.53785374 94.66158498 -1.65356361 102.03137988 -1.69359291 C105.93180604 -1.71698496 109.82594474 -1.77151784 113.72434425 -1.90314102 C137.37307104 -2.67091584 137.37307104 -2.67091584 143.33114243 1.71668243 C147.05138189 5.87050266 149.15119398 10.45673883 151.04038239 15.65383911 C152.64522068 19.57749452 155.03930082 22.96170636 157.4375 26.4375 C157.94684082 27.22092773 158.45618164 28.00435547 158.98095703 28.81152344 C159.38169434 29.42543945 159.78243164 30.03935547 160.1953125 30.671875 C163.10793328 35.15188932 165.96473141 39.66606342 168.8125 44.1875 C173.18987579 51.13686092 177.58679083 58.07333549 182 65 C188.84890091 75.7527838 195.65846394 86.53005426 202.45898438 97.31347656 C208.87947515 107.49282609 215.32275022 117.65724137 221.78857422 127.80786133 C226.02893327 134.46719757 230.24942824 141.13879931 234.4609375 147.81640625 C238.29202359 153.88736013 242.14321169 159.94534761 246 166 C250.8377163 173.59458082 255.65743071 181.20015083 260.4609375 188.81640625 C264.29202369 194.88736029 268.14324496 200.94532628 272 207 C278.84877801 217.75286255 285.65846353 228.53005362 292.45898438 239.31347656 C298.87947515 249.49282609 305.32275022 259.65724137 311.78857422 269.80786133 C316.02893327 276.46719757 320.24942824 283.13879931 324.4609375 289.81640625 C328.29202359 295.88736013 332.14321169 301.94534761 336 308 C340.8377163 315.59458082 345.65743071 323.20015083 350.4609375 330.81640625 C354.29202369 336.88736029 358.14324496 342.94532628 362 349 C368.84877801 359.75286255 375.65846353 370.53005362 382.45898438 381.31347656 C388.87947515 391.49282609 395.32275022 401.65724137 401.78857422 411.80786133 C406.02893327 418.46719757 410.24942824 425.13879931 414.4609375 431.81640625 C418.29202359 437.88736013 422.14321169 443.94534761 426 450 C430.8377163 457.59458082 435.65743071 465.20015083 440.4609375 472.81640625 C444.29202359 478.88736013 448.14321169 484.94534761 452 491 C456.8377163 498.59458082 461.65743071 506.20015083 466.4609375 513.81640625 C470.29202369 519.88736029 474.14324496 525.94532628 478 532 C484.84877801 542.75286255 491.65846353 553.53005362 498.45898438 564.31347656 C501.43369677 569.02972619 504.41122418 573.74417986 507.39208984 578.45654297 C508.51056494 580.22579191 509.62800139 581.9956977 510.74462891 583.76611328 C512.55619001 586.63747926 514.37088567 589.50682855 516.1875 592.375 C516.77821289 593.30836182 517.36892578 594.24172363 517.97753906 595.20336914 C521.23334353 600.31891754 524.59012955 605.32431161 528.125 610.25 C535.60307779 620.88332623 538.499458 631.94400188 536.57421875 644.85546875 C534.20731766 655.84776401 528.57775749 665.0383552 522.0546875 674.0546875 C519.38885715 677.87604887 516.91434026 681.8043312 514.4375 685.75 C513.92727295 686.56251221 513.4170459 687.37502441 512.89135742 688.2121582 C511.81619237 689.92499597 510.74124698 691.63797164 509.66650391 693.35107422 C506.83661709 697.84920957 503.98054276 702.33062426 501.125 706.8125 C500.54032959 707.73063477 499.95565918 708.64876953 499.35327148 709.59472656 C498.16303293 711.46377432 496.97268432 713.33275201 495.78222656 715.20166016 C492.85345187 719.80023762 489.92682309 724.40018027 487 729 C485.83334387 730.83334004 484.6666772 732.66667337 483.5 734.5 C482.9225 735.4075 482.345 736.315 481.75 737.25 C424 828 366.25 918.75 -209.5 1823.5 C-210.07830566 1824.40878906 -210.65661133 1825.31757812 -211.25244141 1826.25390625 C-212.41088568 1828.07427244 -213.56941336 1829.89458556 -214.72802734 1831.71484375 C-217.77120755 1836.49612661 -220.81263107 1841.27851535 -223.8515625 1846.0625 C-224.79902344 1847.55330078 -224.79902344 1847.55330078 -225.765625 1849.07421875 C-226.97189164 1850.97231479 -228.17765144 1852.87073305 -229.3828125 1854.76953125 C-230.20265625 1856.05923828 -230.20265625 1856.05923828 -231.0390625 1857.375 C-231.75376709 1858.50035156 -231.75376709 1858.50035156 -232.48291016 1859.6484375 C-232.9835498 1860.42445312 -233.48418945 1861.20046875 -234 1862 C-234.41875397 1863.02445221 -234.83750793 1864.04890442 -235.26895142 1865.10440063 C-238.48121678 1868.51021099 -239.25005867 1868.46978644 -243.75799561 1868.7215271 C-246.24326135 1868.7389716 -248.72889014 1868.72285629 -251.21386719 1868.68115234 C-252.58389715 1868.67945953 -253.95393255 1868.68041063 -255.32395935 1868.68380737 C-259.04102316 1868.68552924 -262.75692575 1868.65025056 -266.4737196 1868.60836363 C-270.35874229 1868.57086032 -274.24379151 1868.56733163 -278.12896729 1868.56021118 C-285.48498731 1868.54156098 -292.84047242 1868.49232219 -300.19625688 1868.43211424 C-308.57096348 1868.36505405 -316.9456956 1868.33206144 -325.32060385 1868.30194163 C-342.54737866 1868.23922281 -359.77363278 1868.13368503 -377 1868 C-375.82232309 1864.99627153 -374.67239748 1862.25933044 -372.890625 1859.56640625 C-372.47321045 1858.92936768 -372.0557959 1858.2923291 -371.62573242 1857.63598633 C-371.17174072 1856.95173584 -370.71774902 1856.26748535 -370.25 1855.5625 C-369.25045205 1854.03701496 -368.2517976 1852.51094421 -367.25390625 1850.984375 C-366.7242627 1850.17548828 -366.19461914 1849.36660156 -365.64892578 1848.53320312 C-362.79446211 1844.14796252 -359.99204171 1839.72977076 -357.1875 1835.3125 C-356.30529785 1833.92430054 -356.30529785 1833.92430054 -355.40527344 1832.50805664 C-354.20274893 1830.61569543 -353.00043865 1828.72319806 -351.79833984 1826.83056641 C-348.8682623 1822.21865776 -345.93395422 1817.60944299 -343 1813 C-341.83331226 1811.16668008 -340.66664561 1809.33334673 -339.5 1807.5 C-318.50000001 1774.50000002 -318.50000001 1774.50000002 -316.74951172 1771.74926758 C-315.58443052 1769.91840247 -314.41939136 1768.0875106 -313.25439453 1766.2565918 C-310.31381679 1761.63527287 -307.37247908 1757.0144408 -304.4296875 1752.39453125 C-298.93840686 1743.77225726 -293.45391721 1735.14596669 -288 1726.5 C-281.95418218 1716.91570719 -275.87020066 1707.35589393 -269.78222656 1697.79833984 C-266.85345187 1693.19976238 -263.92682309 1688.59981973 -261 1684 C-259.83334387 1682.16665996 -258.6666772 1680.33332663 -257.5 1678.5 C-256.9225 1677.5925 -256.345 1676.685 -255.75 1675.75 C-236.5 1645.5 -236.5 1645.5 -234.74951172 1642.74926758 C-233.58443052 1640.91840247 -232.41939136 1639.0875106 -231.25439453 1637.2565918 C-228.31381679 1632.63527287 -225.37247908 1628.0144408 -222.4296875 1623.39453125 C-216.93840686 1614.77225726 -211.45391721 1606.14596669 -206 1597.5 C-199.95418218 1587.91570719 -193.87020066 1578.35589393 -187.78222656 1568.79833984 C-184.85345187 1564.19976238 -181.92682309 1559.59981973 -179 1555 C-177.83334387 1553.16665996 -176.6666772 1551.33332663 -175.5 1549.5 C-174.9225 1548.5925 -174.345 1547.685 -173.75 1546.75 C-154.49999998 1516.49999998 -154.49999998 1516.49999998 -152.74951172 1513.74926758 C-151.58443052 1511.91840247 -150.41939136 1510.0875106 -149.25439453 1508.2565918 C-146.31381679 1503.63527287 -143.37247908 1499.0144408 -140.4296875 1494.39453125 C-134.93840686 1485.77225726 -129.45391721 1477.14596669 -124 1468.5 C-117.95418218 1458.91570719 -111.87020066 1449.35589393 -105.78222656 1439.79833984 C-102.85345187 1435.19976238 -99.92682309 1430.59981973 -97 1426 C-95.83334387 1424.16665996 -94.6666772 1422.33332663 -93.5 1420.5 C-92.9225 1419.5925 -92.345 1418.685 -91.75 1417.75 C-58.50000001 1365.50000002 -58.50000001 1365.50000002 -56.74951172 1362.74926758 C-55.58443052 1360.91840247 -54.41939136 1359.0875106 -53.25439453 1357.2565918 C-50.31381679 1352.63527287 -47.37247908 1348.0144408 -44.4296875 1343.39453125 C-38.93840686 1334.77225726 -33.45391721 1326.14596669 -28 1317.5 C-21.95418218 1307.91570719 -15.87020066 1298.35589393 -9.78222656 1288.79833984 C-6.85345187 1284.19976238 -3.92682309 1279.59981973 -1 1275 C0.16665613 1273.16665996 1.3333228 1271.33332663 2.5 1269.5 C3.0775 1268.5925 3.655 1267.685 4.25 1266.75 C23.49999999 1236.50000002 23.49999999 1236.50000002 25.25048828 1233.74926758 C26.41556948 1231.91840247 27.58060864 1230.0875106 28.74560547 1228.2565918 C31.68618321 1223.63527287 34.62752092 1219.0144408 37.5703125 1214.39453125 C43.06159314 1205.77225726 48.54608279 1197.14596669 54 1188.5 C60.04581782 1178.91570719 66.12979934 1169.35589393 72.21777344 1159.79833984 C75.14654813 1155.19976238 78.07317691 1150.59981973 81 1146 C82.16665613 1144.16665996 83.3333228 1142.33332663 84.5 1140.5 C85.0775 1139.5925 85.655 1138.685 86.25 1137.75 C105.49999999 1107.50000001 105.49999999 1107.50000001 107.25048828 1104.74926758 C108.41556948 1102.91840247 109.58060864 1101.0875106 110.74560547 1099.2565918 C113.68618321 1094.63527287 116.62752092 1090.0144408 119.5703125 1085.39453125 C125.06159314 1076.77225726 130.54608279 1068.14596669 136 1059.5 C142.04581782 1049.91570719 148.12979934 1040.35589393 154.21777344 1030.79833984 C157.14654813 1026.19976238 160.07317691 1021.59981973 163 1017 C164.16665613 1015.16665996 165.3333228 1013.33332663 166.5 1011.5 C167.0775 1010.5925 167.655 1009.685 168.25 1008.75 C201.5 956.49999999 201.5 956.49999999 203.25048828 953.74926758 C204.41556948 951.91840247 205.58060864 950.0875106 206.74560547 948.2565918 C209.68618321 943.63527287 212.62752092 939.0144408 215.5703125 934.39453125 C221.06159314 925.77225726 226.54608279 917.14596669 232 908.5 C238.04581782 898.91570719 244.12979934 889.35589393 250.21777344 879.79833984 C253.14654813 875.19976238 256.07317691 870.59981973 259 866 C260.16665613 864.16665996 261.3333228 862.33332663 262.5 860.5 C263.0775 859.5925 263.655 858.685 264.25 857.75 C283.50000001 827.49999999 283.50000001 827.49999999 285.25048828 824.74926758 C286.41556948 822.91840247 287.58060864 821.0875106 288.74560547 819.2565918 C291.68618321 814.63527287 294.62752092 810.0144408 297.5703125 805.39453125 C303.06159314 796.77225726 308.54608279 788.14596669 314 779.5 C320.04581782 769.91570719 326.12979934 760.35589393 332.21777344 750.79833984 C335.14654813 746.19976238 338.07317691 741.59981973 341 737 C342.16665613 735.16665996 343.3333228 733.33332663 344.5 731.5 C345.0775 730.5925 345.655 729.685 346.25 728.75 C365.5 698.5 365.5 698.5 367.25048828 695.74926758 C368.41556948 693.91840247 369.58060864 692.0875106 370.74560547 690.2565918 C374.28053737 684.70120469 377.81662448 679.14655733 381.35522461 673.59350586 C382.52472765 671.75576147 383.69224567 669.91675218 384.85766602 668.07641602 C387.72708529 663.54762272 390.62357775 659.04154723 393.58203125 654.5703125 C394.42967041 653.27323364 394.42967041 653.27323364 395.29443359 651.94995117 C396.36219655 650.31720992 397.44137652 648.69185831 398.53369141 647.07543945 C399.00597168 646.34800537 399.47825195 645.62057129 399.96484375 644.87109375 C400.3837085 644.24130615 400.80257324 643.61151855 401.23413086 642.96264648 C402.29596833 640.24153987 401.86996908 638.76664894 401 636 C399.74319452 633.51768202 399.74319452 633.51768202 398.11328125 631.03515625 C397.51169189 630.0814917 396.91010254 629.12782715 396.2902832 628.14526367 C395.63761475 627.12795166 394.98494629 626.11063965 394.3125 625.0625 C393.63985107 624.00071533 392.96720215 622.93893066 392.27416992 621.8449707 C390.19001274 618.55864961 388.095579 615.27904634 386 612 C384.7701815 610.06551841 383.54098431 608.13064164 382.3125 606.1953125 C379.98950698 602.53790941 377.66244407 598.88314826 375.33203125 595.23046875 C372.20680523 590.3294437 369.10028833 585.41682726 366 580.5 C361.68356351 573.65584908 357.34721506 566.82464105 353 560 C347.13362387 550.78954872 341.29326967 541.56300972 335.46777344 532.32666016 C332.98016643 528.38339755 330.48993586 524.44179232 328 520.5 C326.99998776 518.9166744 325.99998775 517.33334107 325 515.75 C324.505 514.96625 324.01 514.1825 323.5 513.375 C318.99999999 506.24999999 318.99999999 506.24999999 317.50048828 503.87573242 C316.49890965 502.28992675 315.49728192 500.70415209 314.49560547 499.1184082 C312.01935816 495.19815243 309.54392299 491.27738893 307.0703125 487.35546875 C301.73116745 478.89235585 296.37559801 470.44001252 291 462 C285.13367474 452.78951614 279.29326982 443.56300997 273.46777344 434.32666016 C270.98016643 430.38339755 268.48993586 426.44179232 266 422.5 C264.99998776 420.9166744 263.99998775 419.33334107 263 417.75 C262.505 416.96625 262.01 416.1825 261.5 415.375 C257.00000001 408.25000001 257.00000001 408.25000001 255.50048828 405.87573242 C254.49890965 404.28992675 253.49728192 402.70415209 252.49560547 401.1184082 C250.01935816 397.19815243 247.54392299 393.27738893 245.0703125 389.35546875 C239.73116745 380.89235585 234.37559801 372.44001252 229 364 C223.13367474 354.78951614 217.29326982 345.56300997 211.46777344 336.32666016 C208.98016643 332.38339755 206.48993586 328.44179232 204 324.5 C202.99998776 322.9166744 201.99998775 321.33334107 201 319.75 C200.505 318.96625 200.01 318.1825 199.5 317.375 C195.00000001 310.25000001 195.00000001 310.25000001 193.50048828 307.87573242 C192.49890965 306.28992675 191.49728192 304.70415209 190.49560547 303.1184082 C188.01935816 299.19815243 185.54392299 295.27738893 183.0703125 291.35546875 C177.73116745 282.89235585 172.37559801 274.44001252 167 266 C161.13367474 256.78951614 155.29326982 247.56300997 149.46777344 238.32666016 C146.98016643 234.38339755 144.48993586 230.44179232 142 226.5 C140.99998776 224.9166744 139.99998775 223.33334107 139 221.75 C138.505 220.96625 138.01 220.1825 137.5 219.375 C133 212.24999999 133 212.24999999 131.50048828 209.87573242 C130.49890965 208.28992675 129.49728192 206.70415209 128.49560547 205.1184082 C126.01935816 201.19815243 123.54392299 197.27738893 121.0703125 193.35546875 C115.73116745 184.89235585 110.37559801 176.44001252 105 168 C99.13367474 158.78951614 93.29326982 149.56300997 87.46777344 140.32666016 C84.98016643 136.38339755 82.48993586 132.44179232 80 128.5 C78.99998776 126.9166744 77.99998775 125.33334107 77 123.75 C76.505 122.96625 76.01 122.1825 75.5 121.375 C71 114.25 71 114.25 69.50048828 111.87573242 C68.49890965 110.28992675 67.49728192 108.70415209 66.49560547 107.1184082 C64.01935816 103.19815243 61.54392299 99.27738893 59.0703125 95.35546875 C53.73116745 86.89235585 48.37559801 78.44001252 43 70 C37.13367474 60.78951614 31.29326982 51.56300997 25.46777344 42.32666016 C23.48025972 39.17612694 21.49108163 36.02664684 19.50146484 32.87744141 C18.5089656 31.30590358 17.51709248 29.73397014 16.52587891 28.16162109 C13.89053222 23.98282607 11.24271358 19.81256439 8.578125 15.65234375 C7.7428125 14.34330078 7.7428125 14.34330078 6.890625 13.0078125 C5.8161587 11.32448197 4.73816203 9.64339844 3.65625 7.96484375 C3.17671875 7.21203125 2.6971875 6.45921875 2.203125 5.68359375 C1.77676758 5.01900146 1.35041016 4.35440918 0.91113281 3.66967773 C0 2 0 2 0 0 Z " fill="#BF0000" transform="translate(537,85)"/>
<path d="M0 0 C1.06098372 0.00092179 2.12196745 0.00184359 3.2151022 0.00279331 C4.42811504 0.00141865 5.64112789 0.00004398 6.8908987 -0.00137234 C8.24737478 0.00216727 9.60385061 0.00580208 10.96032619 0.00952244 C12.37917485 0.00980431 13.79802365 0.00964658 15.21687222 0.00907993 C19.08033881 0.00879194 22.94377463 0.01468892 26.80723405 0.02165389 C30.84047653 0.02788716 34.87371965 0.02849121 38.90696621 0.0296793 C46.54970549 0.03279269 54.19243053 0.04100619 61.83516353 0.05102879 C70.53393099 0.06218967 79.23269911 0.06770031 87.93147194 0.07272422 C105.83033965 0.0831888 123.72919408 0.1007884 141.6280508 0.12304783 C140.51642517 2.03780935 139.40365449 3.95190614 138.29040432 5.86572361 C137.67085369 6.9317078 137.05130306 7.99769199 136.41297817 9.09597874 C134.22924456 12.79938575 131.9300379 16.40855764 129.5655508 19.99804783 C128.61164967 21.45978122 127.65856612 22.92204837 126.7061758 24.38476658 C126.20795315 25.14966404 125.70973049 25.9145615 125.19641018 26.70263767 C122.37620837 31.05498524 119.59671757 35.43319289 116.8155508 39.81054783 C116.22556301 40.7387534 115.63557522 41.66695896 115.02770901 42.62329197 C113.82413139 44.51728385 112.62076301 46.41140872 111.41760159 48.30566502 C102.83263439 61.8214251 94.22532901 75.3226028 85.58947659 88.80590916 C81.25768711 95.5711297 76.93770425 102.34370713 72.6280508 109.12304783 C66.96639573 118.02916733 61.28090443 126.91983767 55.5889883 135.80664158 C51.25738637 142.57163379 46.93754686 149.34395472 42.6280508 156.12304783 C36.96639573 165.02916733 31.28090443 173.91983767 25.5889883 182.80664158 C21.25738637 189.57163379 16.93754686 196.34395472 12.6280508 203.12304783 C6.96639573 212.02916733 1.28090443 220.91983767 -4.4110117 229.80664158 C-8.74261363 236.57163379 -13.06245314 243.34395472 -17.3719492 250.12304783 C-22.35752618 257.96565637 -27.35975602 265.79742358 -32.3719492 273.62304783 C-39.72782014 285.1087628 -47.05503106 296.61249033 -54.3719492 308.12304783 C-62.36477287 320.6969013 -70.37472112 333.25947149 -78.41052341 345.80590916 C-82.74231289 352.5711297 -87.06229575 359.34370713 -91.3719492 366.12304783 C-97.03360427 375.02916733 -102.71909557 383.91983767 -108.4110117 392.80664158 C-112.74261363 399.57163379 -117.06245314 406.34395472 -121.3719492 413.12304783 C-127.03360427 422.02916733 -132.71909557 430.91983767 -138.4110117 439.80664158 C-142.74261363 446.57163379 -147.06245314 453.34395472 -151.3719492 460.12304783 C-157.03360427 469.02916733 -162.71909557 477.91983767 -168.4110117 486.80664158 C-172.74261363 493.57163379 -177.06245314 500.34395472 -181.3719492 507.12304783 C-186.35752618 514.96565637 -191.35975602 522.79742358 -196.3719492 530.62304783 C-203.72782014 542.1087628 -211.05503106 553.61249033 -218.3719492 565.12304783 C-226.36477287 577.6969013 -234.37472112 590.25947149 -242.41052341 602.80590916 C-246.74231289 609.5711297 -251.06229575 616.34370713 -255.3719492 623.12304783 C-261.03360427 632.02916733 -266.71909557 640.91983767 -272.4110117 649.80664158 C-276.74261363 656.57163379 -281.06245314 663.34395472 -285.3719492 670.12304783 C-291.03360427 679.02916733 -296.71909557 687.91983767 -302.4110117 696.80664158 C-306.74261363 703.57163379 -311.06245314 710.34395472 -315.3719492 717.12304783 C-320.35752618 724.96565637 -325.35975602 732.79742358 -330.3719492 740.62304783 C-337.72782014 752.1087628 -345.05503106 763.61249033 -352.3719492 775.12304783 C-360.36477287 787.6969013 -368.37472112 800.25947149 -376.41052341 812.80590916 C-380.74231289 819.5711297 -385.06229575 826.34370713 -389.3719492 833.12304783 C-395.03360427 842.02916733 -400.71909557 850.91983767 -406.4110117 859.80664158 C-410.74261363 866.57163379 -415.06245314 873.34395472 -419.3719492 880.12304783 C-425.03360427 889.02916733 -430.71909557 897.91983767 -436.4110117 906.80664158 C-440.74261363 913.57163379 -445.06245314 920.34395472 -449.3719492 927.12304783 C-455.03360427 936.02916733 -460.71909557 944.91983767 -466.4110117 953.80664158 C-470.74261363 960.57163379 -475.06245314 967.34395472 -479.3719492 974.12304783 C-484.35752618 981.96565637 -489.35975602 989.79742358 -494.3719492 997.62304783 C-501.72782014 1009.1087628 -509.05503106 1020.61249033 -516.3719492 1032.12304783 C-524.36477287 1044.6969013 -532.37472112 1057.25947149 -540.41052341 1069.80590916 C-544.74231289 1076.5711297 -549.06229575 1083.34370713 -553.3719492 1090.12304783 C-557.68258082 1096.90392726 -562.00274038 1103.67855453 -566.33703709 1110.44433689 C-567.68451599 1112.54921695 -569.03008396 1114.65532165 -570.37365818 1116.76269627 C-573.7206283 1122.00870011 -577.09581549 1127.23190983 -580.53210545 1132.41992283 C-581.51727146 1133.92329197 -581.51727146 1133.92329197 -582.52233982 1135.4570322 C-583.76813147 1137.35689629 -585.02542681 1139.24928221 -586.29577732 1141.13281345 C-586.8481406 1141.98037205 -587.40050388 1142.82793064 -587.96960545 1143.70117283 C-588.45952976 1144.43754978 -588.94945408 1145.17392673 -589.45422459 1145.93261814 C-590.65961032 1148.80963884 -590.33413169 1150.17963378 -589.3719492 1153.12304783 C-588.14795806 1155.5558846 -588.14795806 1155.5558846 -586.55554295 1157.98242283 C-585.96426609 1158.92061863 -585.37298923 1159.85881443 -584.7637949 1160.82544041 C-584.11886082 1161.83115086 -583.47392673 1162.83686131 -582.8094492 1163.87304783 C-582.14195652 1164.92709812 -581.47446384 1165.98114841 -580.78674412 1167.06713963 C-579.01329834 1169.86301958 -577.23310819 1172.65429518 -575.44775486 1175.44256687 C-573.70898567 1178.15864154 -571.97463039 1180.87753566 -570.2391367 1183.59570408 C-567.54673667 1187.80805427 -564.84934844 1192.0171639 -562.14929295 1196.22461033 C-558.34115864 1202.16326986 -554.56966292 1208.12440784 -550.80871677 1214.09301853 C-547.01349764 1220.11392811 -543.19601344 1226.12042262 -539.3719492 1232.12304783 C-534.53419116 1239.71760195 -529.71451837 1247.32319885 -524.9110117 1254.93945408 C-521.07992561 1261.01040796 -517.22873751 1267.06839543 -513.3719492 1273.12304783 C-509.02469618 1279.94766555 -504.6885206 1286.7789818 -500.3719492 1293.62304783 C-493.73619759 1304.14273735 -487.0544005 1314.63298386 -480.3719492 1325.12304783 C-473.19884818 1336.38333017 -466.03275916 1347.64764733 -458.91052341 1358.9401865 C-455.07964228 1365.01092289 -451.22857988 1371.06864289 -447.3719492 1377.12304783 C-442.5342329 1384.71762865 -437.71451849 1392.32319866 -432.9110117 1399.93945408 C-429.07992561 1406.01040796 -425.22873751 1412.06839543 -421.3719492 1418.12304783 C-417.02469618 1424.94766555 -412.6885206 1431.7789818 -408.3719492 1438.62304783 C-401.73619759 1449.14273735 -395.0544005 1459.63298386 -388.3719492 1470.12304783 C-381.19884818 1481.38333017 -374.03275916 1492.64764733 -366.91052341 1503.9401865 C-363.07964228 1510.01092289 -359.22857988 1516.06864289 -355.3719492 1522.12304783 C-350.5342329 1529.71762865 -345.71451849 1537.32319866 -340.9110117 1544.93945408 C-337.07992561 1551.01040796 -333.22873751 1557.06839543 -329.3719492 1563.12304783 C-325.02469618 1569.94766555 -320.6885206 1576.7789818 -316.3719492 1583.62304783 C-309.73619759 1594.14273735 -303.0544005 1604.63298386 -296.3719492 1615.12304783 C-289.19884818 1626.38333017 -282.03275916 1637.64764733 -274.91052341 1648.9401865 C-271.07964228 1655.01092289 -267.22857988 1661.06864289 -263.3719492 1667.12304783 C-259.02469618 1673.94766555 -254.6885206 1680.7789818 -250.3719492 1687.62304783 C-243.73619759 1698.14273735 -237.0544005 1708.63298386 -230.3719492 1719.12304783 C-229.17919968 1720.99541743 -227.98649126 1722.86781321 -226.7938242 1724.74023533 C-226.20657566 1725.66215672 -225.61932713 1726.5840781 -225.01428318 1727.5339365 C-223.2631409 1730.28510947 -221.51475495 1733.03802063 -219.76648045 1735.79101658 C-217.5484935 1739.281858 -215.31603545 1742.76272023 -213.07116795 1746.23632908 C-201.29575599 1764.52714385 -190.23496983 1782.62341966 -194.4344492 1805.31054783 C-198.37328117 1821.06587572 -208.64193397 1832.40912059 -222.0125742 1841.18164158 C-238.68108491 1850.81449021 -257.43315003 1852.23606308 -275.8719492 1847.43554783 C-289.33057011 1843.11511294 -299.1482811 1834.9954588 -306.4969492 1823.06054783 C-307.04552586 1822.19349216 -307.59410252 1821.3264365 -308.15930271 1820.43310642 C-309.3191689 1818.59814326 -310.47379074 1816.75985573 -311.62341404 1814.91845798 C-313.91364757 1811.25702627 -316.23990928 1807.61913976 -318.56530857 1803.97998142 C-320.32444255 1801.224563 -322.07762712 1798.46544854 -323.82898045 1795.70507908 C-326.78955718 1791.03896159 -329.75664744 1786.37703145 -332.72570896 1781.71630955 C-338.11488247 1773.25556713 -343.48581525 1764.78364459 -348.83776951 1756.29931736 C-354.39693495 1747.49088393 -359.99378626 1738.70648822 -365.58972263 1729.92138767 C-368.51849732 1725.32281021 -371.44512611 1720.72286756 -374.3719492 1716.12304783 C-375.53860533 1714.28970779 -376.705272 1712.45637446 -377.8719492 1710.62304783 C-398.8719492 1677.62304783 -419.8719492 1644.62304783 -440.8719492 1611.62304783 C-441.44961033 1610.71530613 -442.02727146 1609.80756443 -442.62243748 1608.87231541 C-443.78751868 1607.04145029 -444.95255783 1605.21055842 -446.11755466 1603.37963963 C-449.05813241 1598.7583207 -451.99947012 1594.13748863 -454.9422617 1589.51757908 C-460.92551892 1580.12281554 -466.89522795 1570.71988873 -472.83776951 1561.29931736 C-478.39693495 1552.49088393 -483.99378626 1543.70648822 -489.58972263 1534.92138767 C-492.51849732 1530.32281021 -495.44512611 1525.72286756 -498.3719492 1521.12304783 C-499.53860533 1519.28970779 -500.705272 1517.45637446 -501.8719492 1515.62304783 C-540.3719492 1455.12304783 -540.3719492 1455.12304783 -578.8719492 1394.62304783 C-579.44961033 1393.71530613 -580.02727146 1392.80756443 -580.62243748 1391.87231541 C-581.78751868 1390.04145029 -582.95255783 1388.21055842 -584.11755466 1386.37963963 C-587.05813241 1381.7583207 -589.99947012 1377.13748863 -592.9422617 1372.51757908 C-598.92551892 1363.12281554 -604.89522795 1353.71988873 -610.83776951 1344.29931736 C-616.39693495 1335.49088393 -621.99378626 1326.70648822 -627.58972263 1317.92138767 C-630.51849732 1313.32281021 -633.44512611 1308.72286756 -636.3719492 1304.12304783 C-637.53860533 1302.28970779 -638.705272 1300.45637446 -639.8719492 1298.62304783 C-656.20528253 1272.95638116 -672.53861586 1247.2897145 -688.8719492 1221.62304783 C-689.73916599 1220.26058933 -689.73916599 1220.26058933 -690.62390232 1218.87060642 C-691.78481772 1217.04589387 -692.94498001 1215.22070195 -694.10437107 1213.39502048 C-697.10288469 1208.67548147 -700.1159131 1203.96618165 -703.1531992 1199.27148533 C-716.69059179 1178.30445626 -725.95291554 1160.68936266 -720.51648045 1135.03320408 C-717.62909543 1124.41085991 -713.02448272 1115.29999882 -706.9344492 1106.18554783 C-705.50043551 1103.99311411 -704.06684969 1101.80040048 -702.63366795 1099.60742283 C-701.91743259 1098.52009861 -701.20119724 1097.43277439 -700.46325779 1096.31250095 C-697.34150966 1091.55152528 -694.29340968 1086.74490386 -691.2469492 1081.93554783 C-690.09880555 1080.12937141 -688.95036876 1078.32338132 -687.8016367 1076.51757908 C-687.23670506 1075.62893162 -686.67177341 1074.74028416 -686.08972263 1073.82470798 C-683.18521356 1069.25658726 -680.27845691 1064.68989706 -677.3719492 1060.12304783 C-676.205272 1058.2897212 -675.03860533 1056.45638787 -673.8719492 1054.62304783 C-587.2469492 918.49804783 -587.2469492 918.49804783 -36.8719492 53.62304783 C-36.29404636 52.7149033 -35.71614353 51.80675877 -35.12072849 50.8710947 C-33.95817299 49.04424496 -32.79557557 47.21742189 -31.63293552 45.39062595 C-28.65301755 40.70831548 -25.67390798 36.02549372 -22.69616795 31.34179783 C-12.21554275 14.85867086 -12.21554275 14.85867086 -7.0594492 6.81054783 C-6.01337498 5.17666111 -6.01337498 5.17666111 -4.94616795 3.50976658 C-2.72443549 0.1413335 -2.72443549 0.1413335 0 0 Z " fill="#BF0000" transform="translate(1672.3719491958618,84.87695217132568)"/>
<path d="M0 0 C8.17046901 6.56032772 13.46810436 15.26061306 19 24 C20.10739093 25.73090526 21.21550102 27.46135056 22.32421875 29.19140625 C25.90050463 34.7831098 29.45289079 40.38975581 33 46 C33.52916016 46.83644043 34.05832031 47.67288086 34.60351562 48.53466797 C37.58312137 53.245436 40.55866936 57.95875199 43.53222656 62.67333984 C46.01983356 66.61660243 48.51003385 70.55822684 51 74.5 C53.97780871 79.21405863 56.95515835 83.92840236 59.9296875 88.64453125 C65.26883255 97.10764415 70.62440199 105.55998748 76 114 C81.86632526 123.21048386 87.70673018 132.43699003 93.53222656 141.67333984 C96.01983356 145.61660243 98.51003385 149.55822684 101 153.5 C103.97780871 158.21405863 106.95515835 162.92840236 109.9296875 167.64453125 C115.26883255 176.10764415 120.62440199 184.55998748 126 193 C131.86632526 202.21048386 137.70673018 211.43699003 143.53222656 220.67333984 C146.01983356 224.61660243 148.51003385 228.55822684 151 232.5 C153.97780871 237.21405863 156.95515835 241.92840236 159.9296875 246.64453125 C165.26883255 255.10764415 170.62440199 263.55998748 176 272 C181.86632526 281.21048386 187.70673018 290.43699003 193.53222656 299.67333984 C196.01983356 303.61660243 198.51003385 307.55822684 201 311.5 C203.97780871 316.21405863 206.95515835 320.92840236 209.9296875 325.64453125 C215.26883255 334.10764415 220.62440199 342.55998748 226 351 C231.86632526 360.21048386 237.70673018 369.43699003 243.53222656 378.67333984 C246.01983356 382.61660243 248.51003385 386.55822684 251 390.5 C253.97780871 395.21405863 256.95515835 399.92840236 259.9296875 404.64453125 C265.26883255 413.10764415 270.62440199 421.55998748 276 430 C281.86632526 439.21048386 287.70673018 448.43699003 293.53222656 457.67333984 C296.01983356 461.61660243 298.51003385 465.55822684 301 469.5 C303.97780871 474.21405863 306.95515835 478.92840236 309.9296875 483.64453125 C315.26883255 492.10764415 320.62440199 500.55998748 326 509 C331.86632526 518.21048386 337.70673018 527.43699003 343.53222656 536.67333984 C346.01983356 540.61660243 348.51003385 544.55822684 351 548.5 C353.97780871 553.21405863 356.95515835 557.92840236 359.9296875 562.64453125 C365.26883255 571.10764415 370.62440199 579.55998748 376 588 C381.86632526 597.21048386 387.70673018 606.43699003 393.53222656 615.67333984 C396.01983356 619.61660243 398.51003385 623.55822684 401 627.5 C403.97780871 632.21405863 406.95515835 636.92840236 409.9296875 641.64453125 C415.26883255 650.10764415 420.62440199 658.55998748 426 667 C432.84871863 677.7529006 439.65846334 688.53005331 446.45898438 699.31347656 C452.28744612 708.55419528 458.13084011 717.7850656 464 727 C469.86632526 736.21048386 475.70673018 745.43699003 481.53222656 754.67333984 C483.5191509 757.8229388 485.50779756 760.97144842 487.49658203 764.11987305 C488.49510107 765.70067235 489.49347459 767.28156359 490.49169922 768.86254883 C493.03900666 772.8968272 495.58820791 776.92988969 498.140625 780.9609375 C502.70175424 788.16683882 507.26008956 795.37442904 511.75 802.625 C512.38421875 803.64851563 513.0184375 804.67203125 513.671875 805.7265625 C515 808 515 808 515 809 C496.6587932 809.35095171 478.31846149 809.61517383 459.97461891 809.77718258 C451.45638188 809.85441913 442.94023484 809.95963641 434.42333984 810.1315918 C426.99673365 810.28146241 419.57164097 810.37795343 412.14356458 810.41132742 C408.21217649 810.43083022 404.28511642 810.47637461 400.35512161 810.58595085 C376.4586238 811.22701316 376.4586238 811.22701316 370.7262764 807.53594589 C366.7612249 803.59936074 364.91105264 799.17380108 363 794 C361.98606627 792.32034047 360.93759026 790.65963914 359.8203125 789.046875 C358.91991674 787.61581356 358.02146479 786.1835272 357.125 784.75 C356.10420484 783.12627808 355.08337038 781.50258087 354.0625 779.87890625 C353.55460937 779.06953613 353.04671875 778.26016602 352.5234375 777.42626953 C350.06391494 773.50916453 347.59478972 769.59813687 345.125 765.6875 C344.63386719 764.90963135 344.14273437 764.1317627 343.63671875 763.33032227 C338.04050765 754.47236603 332.41128698 745.63544207 326.78222656 736.79833984 C323.27135308 731.28578753 319.76338497 725.77138595 316.25488281 720.25732422 C313.31412095 715.63577476 310.37263668 711.01468822 307.4296875 706.39453125 C301.44643027 696.99976771 295.47672124 687.5968409 289.53417969 678.17626953 C283.97501424 669.3678361 278.37816293 660.58344039 272.78222656 651.79833984 C269.27135308 646.28578753 265.76338497 640.77138595 262.25488281 635.25732422 C259.31412095 630.63577476 256.37263668 626.01468822 253.4296875 621.39453125 C247.44643027 611.99976771 241.47672124 602.5968409 235.53417969 593.17626953 C229.97501424 584.3678361 224.37816293 575.58344039 218.78222656 566.79833984 C215.27135308 561.28578753 211.76338497 555.77138595 208.25488281 550.25732422 C205.31412095 545.63577476 202.37263668 541.01468822 199.4296875 536.39453125 C193.44643027 526.99976771 187.47672124 517.5968409 181.53417969 508.17626953 C175.97501424 499.3678361 170.37816293 490.58344039 164.78222656 481.79833984 C161.27135308 476.28578753 157.76338497 470.77138595 154.25488281 465.25732422 C151.31412095 460.63577476 148.37263668 456.01468822 145.4296875 451.39453125 C139.44643027 441.99976771 133.47672124 432.5968409 127.53417969 423.17626953 C121.97501424 414.3678361 116.37816293 405.58344039 110.78222656 396.79833984 C107.27135308 391.28578753 103.76338497 385.77138595 100.25488281 380.25732422 C97.31412095 375.63577476 94.37263668 371.01468822 91.4296875 366.39453125 C85.44643027 356.99976771 79.47672124 347.5968409 73.53417969 338.17626953 C67.97501424 329.3678361 62.37816293 320.58344039 56.78222656 311.79833984 C53.85345187 307.19976238 50.92682309 302.59981973 48 298 C46.83334387 296.16665996 45.6666772 294.33332663 44.5 292.5 C42.16666667 288.83333333 39.83333333 285.16666667 37.5 281.5 C36.92233887 280.5922583 36.34467773 279.6845166 35.74951172 278.74926758 C34.58443052 276.91840247 33.41939136 275.0875106 32.25439453 273.2565918 C29.31381679 268.63527287 26.37247908 264.0144408 23.4296875 259.39453125 C17.44643027 249.99976771 11.47672124 240.5968409 5.53417969 231.17626953 C-0.02498576 222.3678361 -5.62183707 213.58344039 -11.21777344 204.79833984 C-14.72864692 199.28578753 -18.23661503 193.77138595 -21.74511719 188.25732422 C-24.68587905 183.63577476 -27.62736332 179.01468822 -30.5703125 174.39453125 C-36.55356973 164.99976771 -42.52327876 155.5968409 -48.46582031 146.17626953 C-52.25554221 140.17149896 -56.06191387 134.17745795 -59.875 128.1875 C-60.45805908 127.27129883 -61.04111816 126.35509766 -61.6418457 125.41113281 C-64.62789746 120.72046621 -67.6178412 116.03233338 -70.61328125 111.34765625 C-74.08977665 105.90741841 -77.55109889 100.4577707 -81 95 C-81.78431396 93.7612915 -81.78431396 93.7612915 -82.58447266 92.49755859 C-94.10896451 74.22989553 -103.65497165 56.93143996 -99.34765625 34.62109375 C-93.99087668 16.98740306 -80.82532967 4.55242994 -65 -4 C-43.51013353 -14.73121747 -19.96531235 -14.08819928 0 0 Z " fill="#BF0000" transform="translate(1343,1144)"/>
<path d="M0 0 C18.71474192 -0.42124331 37.42851731 -0.73825391 56.1470232 -0.93261909 C64.83945862 -1.0252848 73.52894249 -1.15149833 82.21948242 -1.35791016 C89.79809128 -1.5378257 97.374563 -1.65355767 104.95524806 -1.69359291 C108.96737881 -1.71698874 112.97339887 -1.77155435 116.98356056 -1.90314102 C141.31945616 -2.67103993 141.31945616 -2.67103993 147.36965561 1.71970367 C151.11779166 5.86880019 153.20538199 10.44690023 155.06471825 15.66919422 C156.61421921 19.5306892 158.95530841 22.84215911 161.3125 26.25 C161.81523437 27.02351807 162.31796875 27.79703613 162.8359375 28.59399414 C163.24070312 29.21395264 163.64546875 29.83391113 164.0625 30.47265625 C167.34746611 35.5220609 170.58158448 40.60339527 173.8125 45.6875 C174.69578979 47.07727051 174.69578979 47.07727051 175.59692383 48.49511719 C176.79867284 50.38644783 178.00025068 52.27788725 179.20166016 54.16943359 C182.1317377 58.78134224 185.06604578 63.39055701 188 68 C189.16668774 69.83331992 190.33335439 71.66665327 191.5 73.5 C192.0775 74.4075 192.655 75.315 193.25 76.25 C254.5 172.5 254.5 172.5 256.24951172 175.24926758 C257.41776388 177.08506912 258.58605824 178.9208438 259.75439453 180.7565918 C262.64714755 185.30194376 265.5391977 189.84773967 268.4296875 194.39453125 C274.60466368 204.10608469 280.7933621 213.8086463 287 223.5 C293.78028179 234.08706986 300.53742103 244.68864146 307.28222656 255.29833984 C310.18673564 259.86646057 313.09349229 264.43315077 316 269 C317.1666772 270.83332663 318.33334387 272.66665996 319.5 274.5 C320.0775 275.4075 320.655 276.315 321.25 277.25 C424.49999999 439.49999999 424.49999999 439.49999999 426.24951172 442.24926758 C427.41776388 444.08506912 428.58605824 445.9208438 429.75439453 447.7565918 C432.64714755 452.30194376 435.5391977 456.84773967 438.4296875 461.39453125 C444.60466368 471.10608469 450.7933621 480.8086463 457 490.5 C463.78028179 501.08706986 470.53742103 511.68864146 477.28222656 522.29833984 C480.18673564 526.86646057 483.09349229 531.43315077 486 536 C487.1666772 537.83332663 488.33334387 539.66665996 489.5 541.5 C490.36625 542.86125 490.36625 542.86125 491.25 544.25 C502.33333333 561.66666667 513.41666667 579.08333333 524.5 596.5 C525.0779834 597.4082251 525.6559668 598.3164502 526.25146484 599.25219727 C527.41337518 601.0781259 528.57515987 602.9041345 529.73681641 604.73022461 C532.72520824 609.42752701 535.71603951 614.12324892 538.7109375 618.81640625 C541.64636205 623.4169592 544.57302073 628.02298669 547.49462891 632.63232422 C548.81524155 634.70940846 550.14591787 636.77951856 551.48046875 638.84765625 C555.79962623 645.64648013 559.3283682 652.38989731 562 660 C562.47953125 661.36125 562.47953125 661.36125 562.96875 662.75 C567.75926686 678.71838955 565.69670676 694.93965531 558.3125 709.6875 C549.63529629 724.59671037 535.92818366 734.43236457 519.87109375 740.10546875 C502.81776303 744.04614759 485.50727049 741.14150719 470.7734375 731.95703125 C461.12248306 725.14699157 455.20815166 715.81077685 449 706 C447.91600772 704.3042762 446.83133867 702.60898489 445.74609375 700.9140625 C442.75737708 696.23756015 439.78406452 691.55144411 436.81445312 686.86279297 C433.88298627 682.23760725 430.94109367 677.61906761 428 673 C426.83328064 671.1667002 425.66661404 669.33336682 424.5 667.5 C423.63375 666.13875 423.63375 666.13875 422.75 664.75 C403.50000001 634.50000001 403.50000001 634.50000001 401.75048828 631.75073242 C400.58223612 629.91493088 399.41394176 628.0791562 398.24560547 626.2434082 C395.35285245 621.69805624 392.4608023 617.15226033 389.5703125 612.60546875 C383.39533632 602.89391531 377.2066379 593.1913537 371 583.5 C364.21971821 572.91293014 357.46257897 562.31135854 350.71777344 551.70166016 C347.81326436 547.13353943 344.90650771 542.56684923 342 538 C340.8333228 536.16667337 339.66665613 534.33334004 338.5 532.5 C337.63375 531.13875 337.63375 531.13875 336.75 529.75 C233.50000001 367.50000001 233.50000001 367.50000001 231.75048828 364.75073242 C230.58223612 362.91493088 229.41394176 361.0791562 228.24560547 359.2434082 C225.35285245 354.69805624 222.4608023 350.15226033 219.5703125 345.60546875 C213.39533632 335.89391531 207.2066379 326.1913537 201 316.5 C194.21971821 305.91293014 187.46257897 295.31135854 180.71777344 284.70166016 C177.81326436 280.13353943 174.90650771 275.56684923 172 271 C170.8333228 269.16667337 169.66665613 267.33334004 168.5 265.5 C167.9225 264.5925 167.345 263.685 166.75 262.75 C63.5 100.5 63.5 100.5 61.75048828 97.75073242 C60.58223612 95.91493088 59.41394176 94.0791562 58.24560547 92.2434082 C55.35285245 87.69805624 52.4608023 83.15226033 49.5703125 78.60546875 C42.72443366 67.83876839 35.85843955 57.08519257 28.97680664 46.34130859 C23.91167428 38.43107276 18.86391735 30.50993258 13.82763672 22.58129883 C11.27438969 18.56389746 8.71540997 14.5507769 6.12890625 10.5546875 C5.70085693 9.89299561 5.27280762 9.23130371 4.83178711 8.54956055 C3.71554385 6.82720826 2.59618967 5.10687322 1.4765625 3.38671875 C0 1 0 1 0 0 Z " fill="#BF0000" transform="translate(213,85)"/>
<path d="M0 0 C10.09567228 9.45573692 18.03421312 20.72412895 18.953125 34.87890625 C19.18488379 51.85523787 13.60532503 66.08626193 4.3125 80.125 C3.06093559 82.05321517 1.80964099 83.98160549 0.55859375 85.91015625 C-0.07578613 86.88098145 -0.71016602 87.85180664 -1.36376953 88.85205078 C-4.32257069 93.39786617 -7.22137692 97.98132955 -10.125 102.5625 C-15.8263964 111.52883982 -21.55373962 120.47847485 -27.28417969 129.42626953 C-33.38523595 138.95529964 -39.46194761 148.49968371 -45.53222656 158.04833984 C-48.43673564 162.61646057 -51.34349229 167.18315077 -54.25 171.75 C-55.4166772 173.58332663 -56.58334387 175.41665996 -57.75 177.25 C-64.75 188.25 -71.75 199.25 -78.75 210.25 C-79.6160083 211.61088745 -79.6160083 211.61088745 -80.49951172 212.99926758 C-81.66776388 214.83506912 -82.83605824 216.6708438 -84.00439453 218.5065918 C-86.89714755 223.05194376 -89.7891977 227.59773967 -92.6796875 232.14453125 C-99.52927414 242.91706296 -106.3994748 253.67614825 -113.28417969 264.42626953 C-119.38523595 273.95529964 -125.46194761 283.49968371 -131.53222656 293.04833984 C-134.43673564 297.61646057 -137.34349229 302.18315077 -140.25 306.75 C-141.4166772 308.58332663 -142.58334387 310.41665996 -143.75 312.25 C-146.08333333 315.91666667 -148.41666667 319.58333333 -150.75 323.25 C-151.32733887 324.1572583 -151.90467773 325.0645166 -152.49951172 325.99926758 C-153.66776388 327.83506912 -154.83605824 329.6708438 -156.00439453 331.5065918 C-158.89714755 336.05194376 -161.7891977 340.59773967 -164.6796875 345.14453125 C-171.52927414 355.91706296 -178.3994748 366.67614825 -185.28417969 377.42626953 C-191.38523595 386.95529964 -197.46194761 396.49968371 -203.53222656 406.04833984 C-205.26825849 408.77871638 -207.0050704 411.50859501 -208.7421875 414.23828125 C-209.3211377 415.14803711 -209.90008789 416.05779297 -210.49658203 416.99511719 C-211.66145209 418.82530289 -212.82648997 420.65538179 -213.99169922 422.48535156 C-216.96297116 427.15247134 -219.9302624 431.82204531 -222.890625 436.49609375 C-226.32954883 441.92319605 -229.78513865 447.33942818 -233.25 452.75 C-233.72453613 453.49459473 -234.19907227 454.23918945 -234.68798828 455.00634766 C-245.67497108 472.18968611 -257.48427536 485.18735069 -278.0625 490 C-295.83359316 493.0869974 -312.10918392 488.08267191 -326.765625 478.0234375 C-328.75725097 476.36897656 -330.50463099 474.66159464 -332.25 472.75 C-332.91128906 472.03457031 -333.57257812 471.31914063 -334.25390625 470.58203125 C-346.44816496 456.39781761 -352.85383494 438.40243305 -351.46875 419.74707031 C-349.68174191 403.43264374 -338.48929384 389.41849478 -329.73828125 376.0859375 C-326.21500864 370.7125265 -322.75634796 365.29956656 -319.3125 359.875 C-318.73161621 358.96041016 -318.15073242 358.04582031 -317.55224609 357.10351562 C-316.37326265 355.24659226 -315.19455211 353.3894956 -314.01611328 351.53222656 C-311.09820062 346.93552589 -308.17379532 342.34296022 -305.25 337.75 C-304.08330173 335.91668678 -302.91663508 334.08335344 -301.75 332.25 C-299.41666667 328.58333333 -297.08333333 324.91666667 -294.75 321.25 C-294.17266113 320.3427417 -293.59532227 319.4354834 -293.00048828 318.50073242 C-291.83223612 316.66493088 -290.66394176 314.8291562 -289.49560547 312.9934082 C-286.60285245 308.44805624 -283.7108023 303.90226033 -280.8203125 299.35546875 C-273.97072586 288.58293704 -267.1005252 277.82385175 -260.21582031 267.07373047 C-254.11476405 257.54470036 -248.03805239 248.00031629 -241.96777344 238.45166016 C-239.06326436 233.88353943 -236.15650771 229.31684923 -233.25 224.75 C-232.0833228 222.91667337 -230.91665613 221.08334004 -229.75 219.25 C-222.75 208.25 -215.75 197.25 -208.75 186.25 C-207.8839917 184.88911255 -207.8839917 184.88911255 -207.00048828 183.50073242 C-205.83223612 181.66493088 -204.66394176 179.8291562 -203.49560547 177.9934082 C-200.60285245 173.44805624 -197.7108023 168.90226033 -194.8203125 164.35546875 C-187.97072586 153.58293704 -181.1005252 142.82385175 -174.21582031 132.07373047 C-168.11476405 122.54470036 -162.03805239 113.00031629 -155.96777344 103.45166016 C-153.06326436 98.88353943 -150.15650771 94.31684923 -147.25 89.75 C-146.0833228 87.91667337 -144.91665613 86.08334004 -143.75 84.25 C-136.75 73.25 -129.75 62.25 -122.75 51.25 C-122.1720166 50.3415332 -121.5940332 49.43306641 -120.99853516 48.49707031 C-119.83751018 46.67301935 -118.67573225 44.84944742 -117.51318359 43.02636719 C-114.50368842 38.30476235 -111.50969599 33.57429166 -108.5390625 28.828125 C-107.92546875 27.85230469 -107.311875 26.87648438 -106.6796875 25.87109375 C-105.52107752 24.0278506 -104.36702565 22.18173 -103.21875 20.33203125 C-92.63917757 3.54270979 -79.61659968 -9.16307949 -60 -14.5625 C-37.90064725 -18.614048 -17.06659277 -15.33781812 0 0 Z " fill="#BF0000" transform="translate(890.25,1450.25)"/>
<path d="M0 0 C3.73394493 0.08157554 7.46803932 0.0889266 11.20273781 0.1043303 C18.26567854 0.14465006 25.32598625 0.25119776 32.38777018 0.38187367 C40.43096012 0.52746122 48.4742796 0.598725 56.51846027 0.66391432 C73.05729547 0.79960039 89.59348623 1.02807601 106.13035011 1.31812119 C105.99402919 2.90589713 105.85124905 4.49311926 105.70578957 6.08008409 C105.62698051 6.96402345 105.54817146 7.84796281 105.46697426 8.75868821 C103.79989815 21.43386211 94.53721491 33.48701791 87.70212746 43.90796494 C85.17304696 47.78604551 82.71792115 51.71011621 80.25535011 55.63062119 C75.30560024 63.47607659 70.32550551 71.30208486 65.34177589 79.12598252 C61.59174087 85.01528196 57.85487432 90.91265901 54.13035011 96.81812119 C49.22169066 104.60110263 44.28489705 112.36589576 39.34128761 120.12671494 C35.59144315 126.01578786 31.85471782 131.91290715 28.13035011 137.81812119 C23.22169066 145.60110263 18.28489705 153.36589576 13.34128761 161.12671494 C9.59144315 167.01578786 5.85471782 172.91290715 2.13035011 178.81812119 C-2.77830934 186.60110263 -7.71510295 194.36589576 -12.65871239 202.12671494 C-16.40855685 208.01578786 -20.14528218 213.91290715 -23.86964989 219.81812119 C-28.77830934 227.60110263 -33.71510295 235.36589576 -38.65871239 243.12671494 C-42.40855685 249.01578786 -46.14528218 254.91290715 -49.86964989 260.81812119 C-54.77830934 268.60110263 -59.71510295 276.36589576 -64.65871239 284.12671494 C-68.40855685 290.01578786 -72.14528218 295.91290715 -75.86964989 301.81812119 C-80.77830934 309.60110263 -85.71510295 317.36589576 -90.65871239 325.12671494 C-94.40855685 331.01578786 -98.14528218 336.91290715 -101.86964989 342.81812119 C-106.77830934 350.60110263 -111.71510295 358.36589576 -116.65871239 366.12671494 C-120.40855816 372.01578991 -124.14486363 377.91316982 -127.86964989 383.81812119 C-129.33983798 386.14587768 -130.81028847 388.47346824 -132.2807827 390.80103135 C-133.40618378 392.5838963 -134.53041623 394.36749917 -135.65382957 396.15161729 C-137.51424005 399.10498237 -139.37912313 402.05548586 -141.24464989 405.00562119 C-141.81570457 405.91441026 -142.38675926 406.82319932 -142.97511864 407.75952744 C-153.30331853 424.06211931 -163.34676038 435.09946676 -182.59865379 439.8518126 C-198.36781377 443.0897287 -217.76780432 442.52575742 -231.86964989 434.31812119 C-246.3338476 423.89193436 -256.74067438 406.91420212 -259.86964989 389.31812119 C-262.18112498 367.85545901 -254.2217045 353.29112689 -242.61379051 335.93091416 C-240.20007552 332.3150718 -237.84799298 328.66089007 -235.49464989 325.00562119 C-234.61208064 323.64478632 -233.72925926 322.28411494 -232.84621239 320.92358994 C-229.1636945 315.23693741 -225.51854417 309.52638094 -221.86964989 303.81812119 C-217.38730526 296.80656534 -212.89901115 289.79940898 -208.36964989 282.81812119 C-201.14932611 271.68593354 -194.01623049 260.49772336 -186.86964989 249.31812119 C-171.15823206 224.74029712 -171.15823206 224.74029712 -164.09108543 213.84741807 C-159.99100934 207.52110797 -155.93021448 201.16984235 -151.86964989 194.81812119 C-147.38727476 187.80658468 -142.89901129 180.79940919 -138.36964989 173.81812119 C-131.14932611 162.68593354 -124.01623049 151.49772336 -116.86964989 140.31812119 C-101.15823206 115.74029712 -101.15823206 115.74029712 -94.09108543 104.84741807 C-89.99100934 98.52110797 -85.93021448 92.16984235 -81.86964989 85.81812119 C-76.96586992 78.14740393 -72.04760298 70.48689294 -67.09230614 62.84937119 C-62.29166317 55.4418509 -57.54289063 48.00117819 -52.78957176 40.56323838 C-48.44495997 33.76829874 -44.08430523 26.98434492 -39.67043114 20.23413682 C-39.08841942 19.33984971 -39.08841942 19.33984971 -38.49464989 18.42749619 C-38.08436546 17.84991059 -37.67408104 17.27232499 -37.25136375 16.6772368 C-35.71794637 14.27495177 -35.71794637 14.27495177 -34.92128563 11.117697 C-29.23820365 -3.685926 -13.41170257 -0.34246543 0 0 Z " fill="#BF0000" transform="translate(1374.869649887085,83.68187880516052)"/>
</svg>
